<svg width="19" height="19" viewBox="0 0 19 19" fill="none" xmlns="http://www.w3.org/2000/svg">
<path d="M18.7735 9.67772C18.7735 8.8993 18.7104 8.33126 18.5737 7.74219H9.68484V11.2556H14.9024C14.7972 12.1287 14.2292 13.4436 12.9668 14.3272L12.9491 14.4448L15.7596 16.6221L15.9543 16.6415C17.7426 14.99 18.7735 12.56 18.7735 9.67772Z" fill="#4285F4"/>
<path d="M9.68496 18.9348C12.2411 18.9348 14.387 18.0932 15.9544 16.6416L12.967 14.3273C12.1675 14.8848 11.0945 15.274 9.68496 15.274C7.18138 15.274 5.0565 13.6225 4.29904 11.3398L4.18801 11.3493L1.26563 13.6109L1.22742 13.7172C2.78426 16.8098 5.98213 18.9348 9.68496 18.9348Z" fill="#34A853"/>
<path d="M4.29922 11.3402C4.09936 10.7511 3.98369 10.1199 3.98369 9.46776C3.98369 8.81552 4.09936 8.18439 4.28871 7.59532L4.28341 7.46986L1.32441 5.17188L1.2276 5.21792C0.585953 6.5013 0.217773 7.94247 0.217773 9.46776C0.217773 10.9931 0.585953 12.4342 1.2276 13.7175L4.29922 11.3402Z" fill="#FBBC05"/>
<path d="M9.68496 3.66069C11.4627 3.66069 12.6619 4.4286 13.3456 5.07032L16.0175 2.46152C14.3766 0.936221 12.2411 0 9.68496 0C5.98213 0 2.78426 2.12488 1.22742 5.21753L4.28852 7.59492C5.0565 5.31224 7.18138 3.66069 9.68496 3.66069Z" fill="#EB4335"/>
</svg>
